<?xml version="1.0" encoding="UTF-8"?>
<!DOCTYPE svg PUBLIC "-//W3C//DTD SVG 1.1//EN" "http://www.w3.org/Graphics/SVG/1.1/DTD/svg11.dtd">
<!-- Creator: CorelDRAW 2020 (64-Bit) -->
<svg xmlns="http://www.w3.org/2000/svg" xml:space="preserve" width="309.386mm" height="221.192mm" version="1.1" style="shape-rendering:geometricPrecision; text-rendering:geometricPrecision; image-rendering:optimizeQuality; fill-rule:evenodd; clip-rule:evenodd"
viewBox="0 0 32045.49 22910.51"
 xmlns:xlink="http://www.w3.org/1999/xlink"
 xmlns:xodm="http://www.corel.com/coreldraw/odm/2003">
 <defs>
  <style type="text/css">
   <![CDATA[
    .fil4 {fill:none}
    .fil1 {fill:black}
    .fil3 {fill:#26A1DA}
    .fil2 {fill:#2D6FBB}
    .fil0 {fill:black;fill-rule:nonzero}
   ]]>
  </style>
 </defs>
 <g id="图层_x0020_1">
  <metadata id="CorelCorpID_0Corel-Layer"/>
  <g id="_2154268448336">
   <path class="fil0" d="M9374.62 15418.8l0 -346.77 2184.64 0 0 1414.82 -2184.64 0 0 -1026.43 561.76 69.36 0 610.31 1057.64 0 0 -721.28 -1619.4 0zm1016.03 -1844.81l1168.6 0 0 1120.07 -2462.06 0 0 1806.66 -589.5 0 0 -2545.28 589.5 52.02 0 339.83 1872.56 0 0 -426.52 -2462.06 0 0 -346.77 1258.77 0 0 -208.07 624.19 0 0 208.07zm4862.67 2583.43l367.58 0 0 346.77 -912 0 0 -1217.16 544.42 72.83 0 797.57zm322.5 -2337.23l0 1435.63 -1931.5 0 0 -1054.18 558.29 69.36 0 638.06 814.92 0 0 -742.09 -1373.21 0 0 -346.77 246.2 0 -156.04 -419.59 565.23 0 159.51 419.59 301.69 0 159.51 -419.59 565.24 0 -156.05 419.59 246.2 0zm-1928.03 2684l291.28 -1217.16 537.5 72.83 -260.07 1144.34 -568.7 0zm-554.83 -3100.12l0 242.73 423.06 0 0 346.78 -998.7 0 0 -589.51 575.63 0zm-610.31 1307.33l0 -346.78 1033.37 0 0 346.78 -1033.37 0zm801.04 104.02l0 436.93 232.33 0 0 346.77 -232.33 0 0 534.03 232.33 0 0 346.78 -807.98 0 0 -880.8 -225.4 0 0 -346.77 225.4 0 0 -506.28 575.64 69.35zm4176.07 943.22l0 -346.77 2097.95 0 0 1064.58 -2097.95 0 0 -676.21 537.5 69.36 0 260.08 1022.96 0 0 -371.05 -1560.46 0zm-1095.79 -1092.33l346.77 -1255.3 572.16 0 -329.43 1255.3 -589.5 0zm235.79 1841.35l0 -1806.67 554.83 0 0 1806.67 -554.83 0zm859.99 -1331.59l0 -346.77 2097.95 0 0 346.77 -2097.95 0zm0 -582.57l0 -346.78 2097.95 0 0 346.78 -2097.95 0zm1345.46 -929.35l814.91 0 0 346.78 -2219.33 0 0 -346.78 814.91 0 0 -260.07 589.51 0 0 260.07zm4006.15 357.18l0 346.77 -1518.84 0 0 -346.77 1518.84 0zm-1518.84 856.52l0 -346.78 1518.84 0 0 346.78 -1518.84 0zm2156.9 -1366.27l0 1879.49 -2798.43 0 0 -1491.11 547.89 76.3 0 1068.05 1702.64 0 0 -1189.42 -2250.53 0 0 -343.3 1071.52 0 0 -166.45 658.86 0 0 166.45 1068.05 0zm-2905.93 2964.88l0 -946.68 499.36 0 0 946.68 -499.36 0zm2514.09 -946.68l499.35 0 0 946.68 -499.35 0 0 -946.68zm-766.36 488.94l-482.01 0 0 -488.94 482.01 0 0 488.94zm124.83 124.84l0 -613.78 513.22 0 0 960.55 -1758.12 0 0 -960.55 513.22 0 0 613.78 731.68 0z"/>
   <path class="fil1" d="M13679.69 19141.18l-49.74 -46.04c-22.96,9.78 -48.04,17.24 -75.12,22.26 -28.71,5.32 -59.76,8.01 -92.98,8.01l-518.49 0c-65.26,0 -126.53,-11.7 -183.61,-35.07 -57.06,-23.35 -109.93,-58.36 -158.54,-104.97l-0.22 -0.22c-46.61,-48.61 -81.63,-101.47 -104.99,-158.54 -23.36,-57.08 -35.07,-118.35 -35.07,-183.63l0 -808.29c0,-130.74 46.71,-244.78 140.06,-342.16l0.22 -0.21c48.61,-46.62 101.47,-81.62 158.54,-104.97 57.08,-23.37 118.35,-35.08 183.61,-35.08l518.49 0c66.59,0 128.36,11.71 185.12,35.08 56.74,23.37 108.52,58.42 155.17,105.06 47.35,47.32 82.86,99.56 106.56,156.62 23.69,57.09 35.57,119 35.57,185.65l0 808.29c0,56.72 -9.2,110.79 -27.52,162.14 -17.64,49.38 -43.78,96.31 -78.33,140.68l213.83 197.36 -370.41 0 -2.14 -1.98zm-5172.01 -994.02l3470.5 0 0 185.35 -3489.67 0 0 -185.35 19.17 0zm11597.97 19.16l3451.33 0 0 147.03 -3451.33 0 0 -147.03zm-6762.08 747.33c12.76,0 26.7,-1.28 41.65,-3.83 11.49,-1.95 23.64,-4.65 36.46,-8.1l-242.71 -222.66 370.53 0 51.25 47.73c3.92,-11.49 7,-23.29 9.21,-35.33 2.86,-15.6 4.29,-31.78 4.29,-48.47l0 -808.29c0,-74.22 -26.89,-138.25 -80.64,-191.97 -26.3,-26.28 -55.25,-45.99 -86.84,-59.06 -31.58,-13.07 -66.01,-19.63 -103.19,-19.63l-281.91 0c-37.22,0 -71.81,6.56 -103.7,19.63 -31.93,13.07 -61.38,32.78 -88.29,59.06 -26.29,26.28 -45.99,55.39 -59.06,87.28 -13.07,31.9 -19.63,66.85 -19.63,104.69l0 808.29c0,37.18 6.56,71.8 19.63,103.7 13.07,31.93 32.77,61.37 59.06,88.29 26.91,26.28 56.36,45.98 88.29,59.05 31.89,13.08 66.49,19.63 103.7,19.63l281.91 0zm1162.04 -1585.03l342.44 0 0 1822.42 -349.74 0 0 -1822.42 7.3 0zm1912.7 1816.7l-405.99 -721.74 -288.09 0 0 725.48 -330.04 0 0 -1580.61 330.04 30.93 0 612.45 455.97 0c29.27,0 56.47,-5.25 81.48,-15.7 25.03,-10.43 48.09,-26.21 69.11,-47.21 21.7,-21.03 37.93,-44.28 48.72,-69.66 10.75,-25.32 16.16,-52.98 16.16,-82.9l0 -216.85c0,-29.23 -5.39,-56.4 -16.16,-81.43 -10.79,-25.07 -27.02,-48.13 -48.65,-69.1 -21.1,-21.76 -44.17,-37.99 -69.23,-48.79 -25.03,-10.77 -52.2,-16.16 -81.43,-16.16l-786.01 0 0 -211.75 904.29 0c58.09,0 112.27,10.39 162.45,31.13 50.16,20.75 96.33,51.84 138.38,93.2 42.11,42.14 73.73,88.44 94.77,138.94 21.06,50.48 31.62,105.19 31.62,163.96l0 216.85c0,104.2 -32.78,195.17 -98.27,272.73 -32.07,39.4 -68.72,71.35 -109.88,95.8 -38.4,22.77 -80.74,39.03 -126.96,48.69l413.21 735.48 -383.4 0 -2.1 -3.74zm2283.63 -1809.4l0 1303.12c0,66.08 -13.22,127.9 -39.62,185.4 -26.35,57.38 -65.9,110.47 -118.49,159.05 -102.59,94.58 -229.12,141.9 -379.52,141.9l-376.54 0c-150.39,0 -276.89,-47.3 -379.5,-141.9 -52.6,-48.59 -92.14,-101.67 -118.5,-159.05 -26.39,-57.51 -39.62,-119.32 -39.62,-185.4l0 -1310.42 330.04 0 0 1310.42c0,75.41 29.45,140.68 88.31,195.71 30.15,26.28 63.37,46.03 99.56,59.15 36.26,13.15 75.72,19.74 118.29,19.74l179.4 0c42.56,0 82,-6.59 118.28,-19.74 36.19,-13.12 69.41,-32.85 99.59,-59.15 29.45,-27.56 51.57,-57.65 66.27,-90.28 14.69,-32.53 22.02,-67.69 22.02,-105.43l0 -1310.42 330.04 0 0 7.3zm559.36 -7.3l342.44 0 0 1822.42 -349.75 0 0 -1822.42 7.31 0z"/>
   <path class="fil2" d="M16033.93 3759.45c2001.98,0 3524.17,1277.65 4095.92,3147.69 -437.73,609.47 -975.94,1230.79 -1833.87,1893.77 -490.39,378.92 -1118.43,793.22 -1866.28,1157.48 -632.86,-502.54 -811.38,-858.4 -811.38,-858.4 -451.15,-624.1 388.41,-868.3 388.41,-868.3 2822.17,-805.07 2293.26,-2498.36 599.22,-3332.41 -764.82,-376.55 -1773.28,-551.07 -2844.46,-480.8 42,-26.54 84.82,-52.59 128.65,-78.3 629.11,-369.05 1361.7,-580.73 2143.79,-580.73zm-561.25 6618.74c-996.11,413.31 -2197.94,733.67 -3415.43,733.42 346.04,-113.34 599.8,-227.01 777.75,-320.71 -650.5,-745.62 -1044.65,-1720.66 -1044.65,-2787.89 0,-1123.3 436.65,-2144.51 1149.26,-2903.58l-732.61 -375.02c0,0 492.13,-18.45 1081.13,41.31 1082.04,115.27 1936.32,413.26 2439.05,811.38 260.11,205.96 520.38,549.64 513.98,880.24 -9.26,476.7 -559.85,689.66 -1094.25,790.68 -620.61,117.32 -2014.81,108.93 -1997.53,997.22 62.11,690 1183.68,1497.99 2323.3,2132.95z"/>
   <path class="fil3" d="M17255.6 10493.8c377.69,251.75 839.8,519.66 1404.31,842.74 4.37,-3.45 8.84,-6.99 13.13,-10.41 1216.37,-967.4 1829.21,-2490.77 1824.3,-4391.69 -1077.53,2047.66 -2624.05,3235.4 -3241.74,3559.36zm-3541.06 1063.06c666.65,436 1463.34,689.71 2319.38,689.71 581.28,0 1135.15,-117.07 1639.63,-328.4 0,0 1571.44,312.46 2184.08,327.39 0,0 -922.53,-316.43 -1651.31,-596.65 0,0 -750.5,-288.51 -1684.24,-737.62 -916.23,433.99 -1903.07,696.31 -2807.54,645.57z"/>
  </g>
  <polygon class="fil4" points="-0,0 32045.49,0 32045.49,22910.51 -0,22910.51 "/>
 </g>
</svg>
